<svg width="16" height="16" viewBox="0 0 16 16" fill="none" xmlns="http://www.w3.org/2000/svg">
<path d="M3.13398 1.5C3.51888 0.833333 4.48113 0.833333 4.86603 1.5L6.59808 4.5C6.98298 5.16667 6.50185 6 5.73205 6H2.26795C1.49815 6 1.01702 5.16667 1.40192 4.5L3.13398 1.5Z" fill="#FF7A00"/>
<path d="M4 2L5.73205 5H2.26795L4 2Z" fill="#FFB775"/>
<path d="M11.134 1.5C11.5189 0.833333 12.4811 0.833333 12.866 1.5L14.5981 4.5C14.983 5.16667 14.5019 6 13.7321 6H10.2679C9.49815 6 9.01702 5.16667 9.40192 4.5L11.134 1.5Z" fill="#FF7A00"/>
<path d="M12 2L13.7321 5H10.2679L12 2Z" fill="#FFB775"/>
<rect x="2" y="7" width="12" height="2" rx="1" fill="#FF7A00"/>
<rect x="4" y="10" width="8" height="2" rx="1" fill="#FF7A00"/>
<rect x="7" y="13" width="2" height="2" rx="1" fill="black"/>
</svg>
